<?xml version="1.0" encoding="UTF-8" standalone="no"?>
<!-- Created with Inkscape (http://www.inkscape.org/) -->

<svg
   width="52.915012mm"
   height="52.916668mm"
   viewBox="0 0 52.915012 52.916668"
   version="1.1"
   id="svg90516"
   inkscape:version="1.2.2 (b0a8486541, 2022-12-01)"
   sodipodi:docname="e2.svg"
   xmlns:inkscape="http://www.inkscape.org/namespaces/inkscape"
   xmlns:sodipodi="http://sodipodi.sourceforge.net/DTD/sodipodi-0.dtd"
   xmlns="http://www.w3.org/2000/svg"
   xmlns:svg="http://www.w3.org/2000/svg">
  <sodipodi:namedview
     id="namedview90518"
     pagecolor="#ffffff"
     bordercolor="#000000"
     borderopacity="0.25"
     inkscape:showpageshadow="2"
     inkscape:pageopacity="0.0"
     inkscape:pagecheckerboard="0"
     inkscape:deskcolor="#d1d1d1"
     inkscape:document-units="mm"
     showgrid="false"
     inkscape:zoom="0.75187991"
     inkscape:cx="98.419972"
     inkscape:cy="319.19991"
     inkscape:window-width="1920"
     inkscape:window-height="1029"
     inkscape:window-x="0"
     inkscape:window-y="27"
     inkscape:window-maximized="1"
     inkscape:current-layer="layer1" />
  <defs
     id="defs90513" />
  <g
     inkscape:label="Layer 1"
     inkscape:groupmode="layer"
     id="layer1"
     transform="translate(-78.803874,-64.023987)">
    <g
       id="use90228"
       transform="matrix(0.62012688,0,0,0.62012688,85.41639,70.638571)">
      <title
         id="title90611">Easy to Use</title>
      <path
         fill="#83bf4f"
         d="M 58.39,0 23.579,38.28 13.474,30.621 H 7.86 L 23.579,56.14 64,0 Z"
         id="path90613" />
      <path
         fill="#3e4347"
         d="m 53.895,56.14 c 0,0.62 -0.502,1.122 -1.123,1.122 H 7.86 C 7.239,57.262 6.737,56.76 6.737,56.14 V 11.227 c 0,-0.621 0.502,-1.123 1.123,-1.123 H 38.572 L 44.699,3.367 H 2.249 C 1.009,3.368 0.003,4.377 0.003,5.613 v 56.14 c 0,1.242 1.01,2.246 2.246,2.246 h 56.14 c 1.241,0 2.246,-1 2.246,-2.246 V 18.128 l -6.737,9.357 V 56.14"
         id="path90615" />
    </g>
  </g>
</svg>
